<svg xmlns="http://www.w3.org/2000/svg" width="166" height="51" fill="none"><path fill="#fff" fill-rule="evenodd" d="M67.619 17.613c0-2.072-.662-3.867-1.987-5.384a.155.155 0 0 1 .071-.254l5.872-1.604a.156.156 0 0 1 .197.15v24.102c0 2.859-.425 5.241-1.284 7.139-.86 1.898-1.963 3.438-3.319 4.63a13.72 13.72 0 0 1-4.61 2.676c-1.719.595-3.421 1-5.116 1.223a37.483 37.483 0 0 1-4.87.333h-3.58c-.11 0-.188-.119-.141-.222l1.395-3.208c.032-.08.118-.112.197-.088.914.35 1.844.643 2.798.898a33.95 33.95 0 0 0 2.877.611 19.02 19.02 0 0 0 3.208.278c2.065 0 3.665-.397 4.784-1.2 1.127-.801 1.947-1.873 2.46-3.231.512-1.358.82-2.938.914-4.74.094-1.804.142-3.725.142-5.774V17.613h-.008Zm1.663-11.038-2.073-3.041c-.379-.556-.505-1.27-.26-1.89.11-.294.276-.556.48-.81C67.888.278 68.51 0 69.282 0c.772 0 1.395.278 1.852.834.205.246.363.516.48.81.245.627.119 1.342-.26 1.89l-2.072 3.041ZM31.37 35.068a5.32 5.32 0 0 0 1.884 2.342h.008c.85.596 1.789.89 2.821.89v.055h-12.84V38.3c.553 0 1.041-.127 1.467-.366a3.168 3.168 0 0 0 1.048-.976c.276-.405.457-.866.528-1.366.071-.5.016-1.009-.165-1.533l-1.884-4.574-.102-.278H7.25l-2.057 4.685c-.33.85-.354 1.7-.055 2.533.3.834.851 1.462 1.663 1.867v.055H.008v-.055a7.122 7.122 0 0 0 2.79-2.176 13.705 13.705 0 0 0 1.852-3.177l1.27-3.065 2.876-6.797 6.59-15.668-1.6-4.884c0-.016.015-.032.015-.032L17.892.516c.024-.008.055.024.055.024l12.926 33.186.497 1.342Zm-8.646-9.704L15.992 8.362 9.578 23.577l-.765 1.787h13.912Zm-14.267.834-.93 2.175h16.371l-.11-.278-.741-1.897H8.457Zm45.7 12.157h10.75l.016-.008v-.055c-.922-.111-1.663-.477-2.215-1.112l-.165-.222a3.98 3.98 0 0 1-.938-2.454V22.688a38.478 38.478 0 0 0-.386-4.797c-.221-1.517-.67-2.874-1.333-4.066-.67-1.19-1.623-2.136-2.86-2.843-1.238-.698-2.917-1.056-5.021-1.056-1.222 0-2.286.223-3.193.667a7.95 7.95 0 0 0-2.332 1.7c-.655.69-1.199 1.43-1.64 2.231a17.346 17.346 0 0 0-1.064 2.255v-6.257a.156.156 0 0 0-.197-.151l-5.911 1.604c-.119.024-.15.167-.071.254a7.025 7.025 0 0 1 1.45 2.375c.355.968.528 1.969.528 3.01v16.834c0 .969-.292 1.803-.883 2.51l-.165.222c-.552.627-1.293 1-2.215 1.112v.055h10.75v-.055c-.89-.111-1.607-.477-2.167-1.112l-.22-.222a3.715 3.715 0 0 1-.891-2.454V22.013c0-.89.142-1.986.418-3.288a14.61 14.61 0 0 1 1.379-3.788 10.521 10.521 0 0 1 2.46-3.12c.992-.85 2.206-1.28 3.648-1.28 1.364 0 2.428.39 3.185 1.168.756.786 1.316 1.819 1.686 3.097.363 1.287.591 2.756.662 4.407.071 1.652.127 3.336.166 5.043v10.204c0 .969-.292 1.803-.875 2.51l-.22.222c-.552.627-1.262 1-2.137 1.112v.055Zm47.763-17.28v.612l-.007.016-5.754 1.675-16.71 5.13c.3.779.639 1.533 1.025 2.256.386.722.859 1.397 1.41 2.033l1.104 1.111c1.033.93 2.23 1.66 3.594 2.2 1.364.54 2.932.81 4.706.81 1.545 0 2.908-.23 4.09-.699 1.183-.46 2.176-.977 2.988-1.533a11.644 11.644 0 0 0 2.435-2.231l.442.39c-.812 1.11-1.829 2.12-3.043 3.009-1.032.738-2.301 1.421-3.815 2.033-1.513.611-3.318.92-5.422.92-1.994 0-3.854-.38-5.588-1.143a14.616 14.616 0 0 1-4.54-3.097c-1.293-1.302-2.302-2.827-3.043-4.574-.733-1.747-1.103-3.62-1.103-5.63 0-2.009.362-3.883 1.103-5.63a14.256 14.256 0 0 1 3.043-4.574 14.616 14.616 0 0 1 4.54-3.097c1.734-.762 3.594-1.144 5.588-1.144 1.552 0 2.94.215 4.153.644 1.214.428 2.27 1.008 3.153 1.755l.11.11a10.362 10.362 0 0 1 1.553 1.565c.812 1 1.388 1.97 1.718 2.899.331.929.568 1.73.718 2.398.15.675.307 1.175.473 1.509.165.333.528.428 1.079.278ZM79.985 16.36c-.835 1.691-1.316 3.565-1.442 5.606v-.016c-.079 1.27-.008 2.51.189 3.716l17.813-5.415c-.008-.39-.032-.794-.07-1.223a12.129 12.129 0 0 0-1.05-3.955 8.978 8.978 0 0 0-2.435-3.176c-1.048-.874-2.388-1.31-4.011-1.31-2.184 0-4.012.54-5.51 1.62a11.05 11.05 0 0 0-3.484 4.152Zm-1.158 9.87c.11.556.244 1.104.41 1.644h.007l17.207-5.241c.078-.54.11-1.144.11-1.795L78.827 26.23ZM166 21.687v-.611c-.552.15-.915.055-1.08-.278-.166-.334-.323-.834-.473-1.51-.15-.666-.386-1.468-.717-2.397-.331-.93-.907-1.898-1.718-2.899a10.4 10.4 0 0 0-1.553-1.564l-.111-.112c-.882-.746-1.938-1.326-3.152-1.754-1.214-.43-2.601-.644-4.154-.644-1.994 0-3.854.382-5.588 1.144a14.61 14.61 0 0 0-4.54 3.097 14.251 14.251 0 0 0-3.043 4.574c-.741 1.747-1.103 3.621-1.103 5.63 0 2.01.37 3.883 1.103 5.63.741 1.747 1.75 3.272 3.043 4.574a14.61 14.61 0 0 0 4.54 3.097c1.734.763 3.594 1.144 5.588 1.144 2.104 0 3.909-.31 5.423-.921 1.513-.612 2.782-1.295 3.814-2.033 1.214-.89 2.231-1.898 3.043-3.01l-.441-.389a11.664 11.664 0 0 1-2.436 2.231c-.812.556-1.805 1.072-2.987 1.533-1.183.469-2.546.699-4.091.699-1.773 0-3.342-.27-4.705-.81-1.364-.54-2.562-1.27-3.595-2.2l-1.103-1.111a11 11 0 0 1-1.411-2.033 20.036 20.036 0 0 1-1.024-2.256l16.709-5.13 5.754-1.675.008-.016Zm-23.378.278c.126-2.041.607-3.915 1.442-5.607a11.06 11.06 0 0 1 3.484-4.153c1.498-1.08 3.326-1.62 5.51-1.62 1.623 0 2.963.437 4.012 1.31a8.975 8.975 0 0 1 2.435 3.177 12.114 12.114 0 0 1 1.048 3.955c.04.428.063.833.071 1.223l-17.813 5.415a16.602 16.602 0 0 1-.189-3.716v.016Zm.694 5.908c-.166-.54-.3-1.088-.41-1.644l17.734-5.392c0 .651-.031 1.255-.11 1.795l-17.206 5.241h-.008Zm-21.92-17.637c-.993-.207-2.151-.31-3.483-.31l-.016-.008c-1.104 0-2.065.199-2.877.588a7.119 7.119 0 0 0-2.073 1.477 8.816 8.816 0 0 0-1.442 1.977 13.367 13.367 0 0 0-.915 2.089v-5.535c0-.103-.094-.175-.197-.151l-5.919 1.612a.155.155 0 0 0-.071.254c1.324 1.517 1.986 3.312 1.986 5.384v16.851c0 .969-.291 1.803-.882 2.51l-.166.166a3.445 3.445 0 0 1-2.215 1.167v.056h10.735v-.056c-.89-.11-1.608-.476-2.159-1.111l-.221-.222a3.709 3.709 0 0 1-.883-2.454V22.028c0-1.445.142-2.85.418-4.208.284-1.358.701-2.573 1.277-3.653.575-1.072 1.292-1.938 2.159-2.589.867-.651 1.916-.977 3.13-.977 1.292 0 2.411.254 3.349.755.938.5 1.719 1.064 2.349 1.7a9.93 9.93 0 0 1 1.561 2.064c.071.127.26.095.283-.048l.568-3.192c.008-.064-.016-.135-.071-.167a9.248 9.248 0 0 0-1.789-.834c-.631-.222-1.443-.436-2.436-.643Zm16.158 28.12h-10.68V38.3a3.446 3.446 0 0 0 2.215-1.168l.165-.166c.592-.707.883-1.541.883-2.51V17.613c0-2.072-.662-3.867-1.986-5.384a.155.155 0 0 1 .071-.254l5.872-1.604a.157.157 0 0 1 .197.15v23.99c0 .93.292 1.748.883 2.454l.22.223c.552.635 1.269 1 2.16 1.112v.055ZM134.291 3.04 132.218 0l-2.073 3.041c-.378.548-.504 1.263-.26 1.89.118.294.276.564.481.81.457.556 1.08.834 1.852.834.773 0 1.395-.278 1.853-.834.204-.254.37-.516.48-.81.245-.619.119-1.334-.26-1.89Z" clip-rule="evenodd"/></svg>