<?xml version="1.0" standalone="no"?>
<!DOCTYPE svg PUBLIC "-//W3C//DTD SVG 20010904//EN"
 "http://www.w3.org/TR/2001/REC-SVG-20010904/DTD/svg10.dtd">
<svg version="1.0" xmlns="http://www.w3.org/2000/svg"
 width="1074.000000pt" height="1074.000000pt" viewBox="0 0 1074.000000 1074.000000"
 preserveAspectRatio="xMidYMid meet">
<metadata>
Created by potrace 1.14, written by Peter Selinger 2001-2017
</metadata>
<g transform="translate(0.000000,1074.000000) scale(0.100000,-0.100000)"
fill="#000000" stroke="none">
<path d="M0 5370 l0 -5370 5370 0 5370 0 0 5370 0 5370 -5370 0 -5370 0 0
-5370z m4333 295 c459 -1182 853 -2198 875 -2257 60 -159 123 -251 234 -340
97 -78 205 -122 338 -138 36 -4 -311 -7 -770 -7 -512 -1 -812 3 -775 8 128 19
233 96 292 217 37 74 38 79 38 186 l0 111 -136 330 -137 330 -1093 0 -1092 0
-134 -305 c-161 -367 -167 -385 -161 -499 9 -162 79 -277 224 -368 15 -9 -78
-12 -426 -12 l-445 -1 78 44 c148 85 254 187 364 351 69 103 128 223 219 440
47 116 236 566 419 1000 183 435 464 1103 624 1485 l291 695 -104 319 -104
318 131 63 c73 35 193 92 267 128 74 36 138 62 142 59 3 -4 382 -974 841
-2157z m3892 921 c410 -75 684 -327 819 -754 32 -102 52 -208 78 -417 20 -159
22 -231 28 -1125 7 -1038 3 -980 66 -1101 71 -134 166 -213 303 -250 65 -17
52 -17 -634 -17 -682 -1 -698 0 -640 17 91 26 143 58 211 125 68 68 115 151
134 236 15 69 8 1961 -9 2170 -34 436 -127 722 -289 892 -67 70 -126 109 -212
139 -55 19 -87 23 -205 23 -159 1 -224 -12 -341 -70 -271 -134 -532 -535 -628
-965 -57 -258 -57 -253 -54 -1264 l3 -930 37 -78 c40 -83 130 -188 197 -230
19 -12 69 -31 111 -44 l75 -22 -700 0 c-687 1 -699 1 -634 18 93 25 164 67
221 131 58 65 112 168 128 243 7 37 10 412 8 1267 l-3 1215 -28 100 c-34 125
-110 281 -176 363 -28 34 -51 66 -51 71 0 11 -2 10 442 131 186 51 344 90 353
86 13 -5 15 -57 15 -403 l0 -398 66 135 c204 421 485 666 829 720 86 13 374 5
480 -14z"/>
<path d="M2775 5708 l-460 -1093 447 -3 c247 -1 650 -1 896 0 l448 3 -430
1092 c-237 601 -433 1093 -436 1093 -3 0 -213 -492 -465 -1092z"/>
<path d="M2207 4364 c-32 -75 -56 -138 -54 -140 2 -2 477 -3 1054 -2 l1051 3
-53 135 -52 135 -944 3 -945 2 -57 -136z"/>
</g>
</svg>
