<svg xmlns="http://www.w3.org/2000/svg" width="163" height="50" fill="none"><path fill="#000" fill-rule="evenodd" d="M66.084 17.205c0-2.025-.647-3.778-1.942-5.26a.151.151 0 0 1 .07-.248l5.74-1.566c.1-.024.192.046.192.147v23.543c0 2.792-.416 5.12-1.256 6.973-.84 1.854-1.918 3.359-3.243 4.522a13.413 13.413 0 0 1-4.507 2.614 25.28 25.28 0 0 1-5 1.195 36.649 36.649 0 0 1-4.76.326H47.88a.155.155 0 0 1-.14-.217l1.364-3.134c.031-.078.116-.109.193-.086.894.342 1.803.629 2.735.877.832.217 1.764.419 2.812.597 1.048.179 2.088.272 3.135.272 2.019 0 3.583-.388 4.677-1.171 1.101-.784 1.902-1.831 2.403-3.158.5-1.326.801-2.87.894-4.63.092-1.761.138-3.639.138-5.64V17.205h-.007Zm1.625-10.782-2.026-2.971c-.37-.543-.493-1.241-.254-1.846a2.86 2.86 0 0 1 .47-.792C66.346.271 66.954 0 67.709 0c.755 0 1.364.271 1.81.814.201.241.355.505.47.792.24.613.116 1.31-.254 1.846l-2.026 2.97ZM30.654 34.255c.4.946 1.009 1.706 1.84 2.288h.009a4.697 4.697 0 0 0 2.758.869v.054H22.71v-.054c.54 0 1.017-.124 1.433-.357.408-.24.755-.55 1.025-.954.27-.396.446-.846.516-1.334.07-.489.015-.985-.162-1.497l-1.841-4.468-.1-.272H7.08l-2.01 4.577c-.324.83-.348 1.66-.055 2.474a3.17 3.17 0 0 0 1.626 1.823v.054H0v-.054a6.961 6.961 0 0 0 2.727-2.125c.74-.947 1.34-1.978 1.81-3.103l1.24-2.994 2.813-6.64 6.44-15.305-1.564-4.77c0-.016.016-.031.016-.031L17.48.504c.023-.008.054.023.054.023l12.634 32.417.486 1.31Zm-8.451-9.48-6.58-16.607-6.27 14.863-.748 1.745h13.598Zm-13.944.815-.91 2.126H23.35l-.107-.272-.725-1.854H8.258Zm44.666 11.876h10.509l.015-.008v-.054c-.901-.108-1.625-.465-2.165-1.086l-.162-.217a3.886 3.886 0 0 1-.916-2.397V22.162a37.567 37.567 0 0 0-.378-4.685c-.216-1.482-.655-2.809-1.302-3.972-.655-1.164-1.587-2.087-2.796-2.777-1.21-.683-2.85-1.032-4.908-1.032-1.194 0-2.234.217-3.12.652a7.77 7.77 0 0 0-2.28 1.66c-.64.675-1.171 1.396-1.602 2.18a16.927 16.927 0 0 0-1.04 2.202v-6.112c0-.1-.093-.17-.193-.147l-5.778 1.566c-.115.024-.146.163-.07.249a6.861 6.861 0 0 1 1.418 2.32c.347.945.516 1.923.516 2.939V33.65c0 .946-.285 1.76-.863 2.451l-.161.217c-.54.613-1.264.978-2.165 1.086v.054h10.508v-.054c-.87-.108-1.572-.465-2.118-1.086l-.216-.217a3.628 3.628 0 0 1-.87-2.397V21.502c0-.868.138-1.939.408-3.211.27-1.264.716-2.506 1.348-3.7a10.276 10.276 0 0 1 2.403-3.049c.971-.83 2.157-1.248 3.567-1.248 1.333 0 2.373.38 3.113 1.14.74.768 1.286 1.776 1.648 3.025.355 1.257.578 2.692.647 4.305.07 1.614.124 3.258.162 4.926v9.967c0 .947-.285 1.761-.855 2.452l-.216.217c-.539.613-1.232.977-2.087 1.086v.054Zm46.686-16.879v.597l-.008.016-5.624 1.637-16.332 5.01c.293.76.624 1.498 1.002 2.204.377.706.84 1.365 1.379 1.985l1.078 1.086c1.01.908 2.18 1.622 3.513 2.15 1.333.527 2.866.79 4.6.79 1.51 0 2.842-.225 3.998-.682 1.155-.45 2.126-.954 2.92-1.497.94-.652 1.733-1.381 2.38-2.18l.431.38c-.793 1.086-1.787 2.071-2.973 2.94-1.01.721-2.25 1.388-3.729 1.986-1.48.597-3.243.9-5.3.9-1.95 0-3.767-.373-5.462-1.117a14.29 14.29 0 0 1-4.438-3.026c-1.263-1.272-2.25-2.761-2.973-4.468-.717-1.706-1.079-3.537-1.079-5.5 0-1.962.355-3.793 1.079-5.5a13.927 13.927 0 0 1 2.973-4.467 14.29 14.29 0 0 1 4.438-3.025c1.695-.745 3.513-1.117 5.462-1.117 1.517 0 2.873.209 4.06.628 1.186.419 2.218.985 3.081 1.714l.108.109c.578.473 1.086.985 1.518 1.528.793.977 1.356 1.924 1.68 2.831.323.908.554 1.691.7 2.343.147.66.3 1.148.462 1.474.162.325.517.419 1.056.271Zm-21.44-4.607c-.817 1.652-1.287 3.482-1.41 5.476v-.016a16.212 16.212 0 0 0 .185 3.63l17.41-5.29a16.74 16.74 0 0 0-.068-1.194 11.846 11.846 0 0 0-1.025-3.863 8.77 8.77 0 0 0-2.38-3.103c-1.025-.853-2.335-1.28-3.922-1.28-2.134 0-3.921.528-5.385 1.583a10.795 10.795 0 0 0-3.405 4.056ZM77.04 25.62c.108.543.238 1.079.4 1.606h.008l16.817-5.12c.078-.527.108-1.116.108-1.753L77.04 25.621Zm85.204-4.437v-.597c-.539.148-.893.054-1.055-.271-.162-.326-.316-.815-.462-1.474a20.6 20.6 0 0 0-.702-2.343c-.323-.907-.885-1.854-1.679-2.831a10.101 10.101 0 0 0-1.518-1.528l-.107-.109c-.863-.729-1.896-1.295-3.082-1.714-1.186-.419-2.542-.628-4.06-.628-1.949 0-3.767.372-5.462 1.117a14.281 14.281 0 0 0-4.437 3.025 13.91 13.91 0 0 0-2.974 4.468c-.724 1.706-1.079 3.537-1.079 5.5 0 1.962.362 3.793 1.079 5.5.724 1.706 1.71 3.195 2.974 4.467a14.281 14.281 0 0 0 4.437 3.026c1.695.744 3.513 1.116 5.462 1.116 2.057 0 3.821-.302 5.3-.9 1.479-.597 2.72-1.264 3.729-1.985 1.186-.869 2.18-1.854 2.974-2.94l-.432-.38a11.373 11.373 0 0 1-2.38 2.18c-.794.543-1.764 1.047-2.92 1.497-1.156.457-2.488.682-3.998.682-1.734 0-3.267-.263-4.6-.79-1.332-.528-2.503-1.242-3.513-2.15l-1.078-1.086a10.755 10.755 0 0 1-1.379-1.985 19.57 19.57 0 0 1-1.002-2.203l16.333-5.011 5.623-1.637.008-.016Zm-22.85.272c.124-1.994.594-3.824 1.41-5.476a10.796 10.796 0 0 1 3.405-4.057c1.464-1.055 3.251-1.583 5.385-1.583 1.587 0 2.897.427 3.922 1.28a8.771 8.771 0 0 1 2.38 3.103 11.829 11.829 0 0 1 1.025 3.863c.038.419.061.814.069 1.194l-17.411 5.29a16.254 16.254 0 0 1-.185-3.63v.016Zm.678 5.771a16.553 16.553 0 0 1-.4-1.606l17.334-5.267c0 .637-.031 1.226-.108 1.754l-16.818 5.12h-.008ZM118.647 10c-.971-.202-2.103-.303-3.405-.303l-.015-.007c-1.079 0-2.019.194-2.812.574a6.97 6.97 0 0 0-2.027 1.442 8.601 8.601 0 0 0-1.409 1.932 13.069 13.069 0 0 0-.894 2.04V10.27c0-.1-.092-.17-.193-.147l-5.785 1.575a.151.151 0 0 0-.07.248c1.295 1.481 1.942 3.235 1.942 5.26v16.46c0 .946-.285 1.76-.863 2.45l-.162.163a3.37 3.37 0 0 1-2.165 1.14v.055h10.493v-.054c-.87-.109-1.571-.466-2.111-1.086l-.215-.217a3.62 3.62 0 0 1-.863-2.397V21.518c0-1.412.138-2.785.408-4.111.277-1.327.686-2.514 1.248-3.568.562-1.048 1.263-1.893 2.111-2.53.847-.635 1.872-.953 3.058-.953 1.264 0 2.358.248 3.274.737.917.488 1.68 1.039 2.296 1.66a9.683 9.683 0 0 1 1.526 2.016c.069.124.254.094.277-.046l.555-3.118c.007-.063-.016-.132-.07-.163a9.013 9.013 0 0 0-1.748-.815c-.617-.217-1.41-.427-2.381-.628Zm15.793 27.467h-10.439v-.054a3.37 3.37 0 0 0 2.165-1.14l.162-.163c.578-.69.863-1.505.863-2.451V17.205c0-2.024-.648-3.778-1.942-5.26a.151.151 0 0 1 .069-.247l5.74-1.567c.1-.024.192.046.192.147v23.434c0 .907.286 1.706.863 2.397l.216.217c.539.62 1.24.977 2.111 1.086v.054Zm-3.189-34.495L129.225 0l-2.027 2.97c-.369.536-.493 1.234-.254 1.847.116.287.27.55.47.791.447.543 1.056.815 1.811.815.755 0 1.363-.272 1.81-.815.2-.248.362-.504.47-.79.239-.606.115-1.304-.254-1.847Z" clip-rule="evenodd"/></svg>